<svg width="20" height="20" viewBox="0 0 20 20" fill="none" xmlns="http://www.w3.org/2000/svg">
<path fill-rule="evenodd" clip-rule="evenodd" d="M13.0638 13.4935C11.8909 14.6663 10.2707 15.3917 8.48101 15.3917C4.90165 15.3917 2 12.4901 2 8.9107C2 5.33134 4.90165 2.42969 8.48101 2.42969C12.0604 2.42969 14.962 5.33134 14.962 8.9107C14.962 10.2612 14.5489 11.5153 13.8422 12.5534L17.822 16.5332C18.0593 16.7705 18.0593 17.1552 17.822 17.3925C17.5848 17.6297 17.2001 17.6297 16.9628 17.3925L13.0638 13.4935ZM13.7468 8.9107C13.7468 11.8189 11.3892 14.1765 8.48101 14.1765C5.57278 14.1765 3.21519 11.8189 3.21519 8.9107C3.21519 6.00247 5.57278 3.64488 8.48101 3.64488C11.3892 3.64488 13.7468 6.00247 13.7468 8.9107Z" fill="#191C1F"/>
</svg>
